@startuml
'https://plantuml.com/class-diagram

interface ITokenize{
    List<String> tokenize()
}

class TachTu{
    String s;
}

abstract class TokenDecorator{
    List<String> tokenize;
}

ITokenize <|.. TachTu
ITokenize <|..TokenDecorator
TokenDecorator --> "tokens" ITokenize
TokenDecorator <|-- LoaiBoTuDung
TokenDecorator <|-- LoaiBoDauCau
@enduml